<mxfile host="65bd71144e">
    <diagram id="Ycw45cgB2ezf2HPw3AUv" name="Server Structure">
        <mxGraphModel dx="1111" dy="844" grid="0" gridSize="10" guides="1" tooltips="1" connect="1" arrows="1" fold="1" page="1" pageScale="1" pageWidth="3300" pageHeight="4681" math="0" shadow="0">
            <root>
                <mxCell id="0"/>
                <mxCell id="1" parent="0"/>
                <mxCell id="2" value="Gabia&lt;div&gt;211.233.58.22&lt;/div&gt;" style="rounded=0;whiteSpace=wrap;html=1;" vertex="1" parent="1">
                    <mxGeometry x="165" y="139" width="120" height="60" as="geometry"/>
                </mxCell>
                <mxCell id="3" value="&lt;p style=&quot;margin-top: 0pt; margin-bottom: 0pt; margin-left: 0in; direction: ltr; unicode-bidi: embed; word-break: normal;&quot;&gt;&lt;font style=&quot;font-size: 15px;&quot; face=&quot;Aptos&quot;&gt;Smart web - Prod&lt;/font&gt;&lt;/p&gt;" style="rounded=0;whiteSpace=wrap;html=1;" vertex="1" parent="1">
                    <mxGeometry x="338" y="139" width="120" height="31" as="geometry"/>
                </mxCell>
                <mxCell id="4" value="&lt;p style=&quot;margin-top: 0pt; margin-bottom: 0pt; margin-left: 0in; direction: ltr; unicode-bidi: embed; word-break: normal;&quot;&gt;&lt;font style=&quot;font-size: 15px;&quot; face=&quot;Aptos&quot;&gt;Smart web - Dev&lt;/font&gt;&lt;/p&gt;" style="rounded=0;whiteSpace=wrap;html=1;" vertex="1" parent="1">
                    <mxGeometry x="338" y="177" width="120" height="31" as="geometry"/>
                </mxCell>
                <mxCell id="5" value="&lt;p style=&quot;margin-top: 0pt; margin-bottom: 0pt; margin-left: 0in; direction: ltr; unicode-bidi: embed; word-break: normal;&quot;&gt;&lt;font style=&quot;font-size: 15px;&quot; face=&quot;Aptos&quot;&gt;Smart Server - Prod&lt;/font&gt;&lt;/p&gt;" style="rounded=0;whiteSpace=wrap;html=1;" vertex="1" parent="1">
                    <mxGeometry x="338" y="218" width="132" height="31" as="geometry"/>
                </mxCell>
                <mxCell id="6" value="&lt;p style=&quot;margin-top: 0pt; margin-bottom: 0pt; margin-left: 0in; direction: ltr; unicode-bidi: embed; word-break: normal;&quot;&gt;&lt;font style=&quot;font-size: 15px;&quot; face=&quot;Aptos&quot;&gt;Smart Server - Dev&lt;/font&gt;&lt;/p&gt;" style="rounded=0;whiteSpace=wrap;html=1;" vertex="1" parent="1">
                    <mxGeometry x="338" y="259" width="132" height="31" as="geometry"/>
                </mxCell>
                <mxCell id="7" value="&lt;p style=&quot;margin-top: 0pt; margin-bottom: 0pt; margin-left: 0in; direction: ltr; unicode-bidi: embed; word-break: normal;&quot;&gt;&lt;font style=&quot;font-size: 15px;&quot; face=&quot;Aptos&quot;&gt;E-Approval-Sys-Prod&lt;/font&gt;&lt;/p&gt;" style="rounded=0;whiteSpace=wrap;html=1;" vertex="1" parent="1">
                    <mxGeometry x="338" y="300" width="141" height="31" as="geometry"/>
                </mxCell>
                <mxCell id="8" value="&lt;p style=&quot;margin-top: 0pt; margin-bottom: 0pt; margin-left: 0in; direction: ltr; unicode-bidi: embed; word-break: normal;&quot;&gt;&lt;font style=&quot;font-size: 15px;&quot; face=&quot;Aptos&quot;&gt;E-Approval-Sys-Dev&lt;/font&gt;&lt;/p&gt;" style="rounded=0;whiteSpace=wrap;html=1;" vertex="1" parent="1">
                    <mxGeometry x="338" y="341" width="141" height="31" as="geometry"/>
                </mxCell>
                <mxCell id="9" value="&lt;p style=&quot;margin-top: 0pt; margin-bottom: 0pt; margin-left: 0in; direction: ltr; unicode-bidi: embed; word-break: normal;&quot;&gt;&lt;font style=&quot;font-size: 15px;&quot; face=&quot;Aptos&quot;&gt;Mobile Web - Prod&lt;/font&gt;&lt;/p&gt;" style="rounded=0;whiteSpace=wrap;html=1;" vertex="1" parent="1">
                    <mxGeometry x="338" y="382" width="141" height="31" as="geometry"/>
                </mxCell>
                <mxCell id="10" value="&lt;p style=&quot;margin-top: 0pt; margin-bottom: 0pt; margin-left: 0in; direction: ltr; unicode-bidi: embed; word-break: normal;&quot;&gt;&lt;font style=&quot;font-size: 15px;&quot; face=&quot;Aptos&quot;&gt;Mobile Web - Dev&lt;/font&gt;&lt;/p&gt;" style="rounded=0;whiteSpace=wrap;html=1;" vertex="1" parent="1">
                    <mxGeometry x="338" y="423" width="141" height="31" as="geometry"/>
                </mxCell>
                <mxCell id="11" value="Gabia&lt;div&gt;211.233.58.23&lt;/div&gt;" style="rounded=0;whiteSpace=wrap;html=1;" vertex="1" parent="1">
                    <mxGeometry x="620" y="139" width="120" height="60" as="geometry"/>
                </mxCell>
                <mxCell id="12" value="&lt;p style=&quot;margin-top: 0pt; margin-bottom: 0pt; margin-left: 0in; direction: ltr; unicode-bidi: embed; word-break: normal;&quot;&gt;&lt;font style=&quot;font-size: 15px;&quot; face=&quot;Aptos&quot;&gt;MySQL&lt;/font&gt;&lt;/p&gt;" style="rounded=0;whiteSpace=wrap;html=1;" vertex="1" parent="1">
                    <mxGeometry x="813" y="139" width="120" height="31" as="geometry"/>
                </mxCell>
                <mxCell id="13" value="&lt;p style=&quot;margin-top: 0pt; margin-bottom: 0pt; margin-left: 0in; direction: ltr; unicode-bidi: embed; word-break: normal;&quot;&gt;&lt;font style=&quot;font-size: 15px;&quot; face=&quot;Aptos&quot;&gt;Redis&lt;/font&gt;&lt;/p&gt;" style="rounded=0;whiteSpace=wrap;html=1;" vertex="1" parent="1">
                    <mxGeometry x="813" y="177" width="120" height="31" as="geometry"/>
                </mxCell>
                <mxCell id="14" value="&lt;p style=&quot;margin-top: 0pt; margin-bottom: 0pt; margin-left: 0in; direction: ltr; unicode-bidi: embed; word-break: normal;&quot;&gt;&lt;font style=&quot;font-size: 15px;&quot; face=&quot;Aptos&quot;&gt;Elasticsearch&lt;/font&gt;&lt;/p&gt;" style="rounded=0;whiteSpace=wrap;html=1;" vertex="1" parent="1">
                    <mxGeometry x="813" y="215" width="120" height="31" as="geometry"/>
                </mxCell>
                <mxCell id="15" value="&lt;p style=&quot;margin-top: 0pt; margin-bottom: 0pt; margin-left: 0in; direction: ltr; unicode-bidi: embed; word-break: normal;&quot;&gt;&lt;font style=&quot;font-size: 15px;&quot; face=&quot;Aptos&quot;&gt;MongoDB&lt;/font&gt;&lt;/p&gt;" style="rounded=0;whiteSpace=wrap;html=1;" vertex="1" parent="1">
                    <mxGeometry x="813" y="253" width="120" height="31" as="geometry"/>
                </mxCell>
                <mxCell id="16" value="&lt;p style=&quot;margin-top: 0pt; margin-bottom: 0pt; margin-left: 0in; direction: ltr; unicode-bidi: embed; word-break: normal;&quot;&gt;&lt;font style=&quot;font-size: 15px;&quot; face=&quot;Aptos&quot;&gt;Kafka ( 1 ~ 3 )&lt;/font&gt;&lt;/p&gt;" style="rounded=0;whiteSpace=wrap;html=1;" vertex="1" parent="1">
                    <mxGeometry x="813" y="290" width="120" height="31" as="geometry"/>
                </mxCell>
                <mxCell id="QKdfLqOmN_FAJguGKlLN-17" value="AWS" style="rounded=0;whiteSpace=wrap;html=1;" vertex="1" parent="1">
                    <mxGeometry x="165" y="566" width="120" height="60" as="geometry"/>
                </mxCell>
                <mxCell id="QKdfLqOmN_FAJguGKlLN-18" value="File Repository - S3" style="rounded=0;whiteSpace=wrap;html=1;" vertex="1" parent="1">
                    <mxGeometry x="338" y="566" width="120" height="60" as="geometry"/>
                </mxCell>
            </root>
        </mxGraphModel>
    </diagram>
    <diagram id="q5aAhLje6Fp3EkgSDNsW" name="CI/CD Workflow">
        <mxGraphModel dx="1055" dy="802" grid="0" gridSize="10" guides="1" tooltips="1" connect="1" arrows="1" fold="1" page="1" pageScale="1" pageWidth="3300" pageHeight="4681" math="0" shadow="0">
            <root>
                <mxCell id="0"/>
                <mxCell id="1" parent="0"/>
                <mxCell id="LFpIFKzi9VezRAVTDR0Y-7" value="" style="edgeStyle=none;html=1;" edge="1" parent="1" source="LFpIFKzi9VezRAVTDR0Y-1" target="LFpIFKzi9VezRAVTDR0Y-2">
                    <mxGeometry relative="1" as="geometry"/>
                </mxCell>
                <mxCell id="LFpIFKzi9VezRAVTDR0Y-1" value="Git Commit" style="rounded=0;whiteSpace=wrap;html=1;" vertex="1" parent="1">
                    <mxGeometry x="241" y="520" width="120" height="60" as="geometry"/>
                </mxCell>
                <mxCell id="LFpIFKzi9VezRAVTDR0Y-8" value="" style="edgeStyle=none;html=1;" edge="1" parent="1" source="LFpIFKzi9VezRAVTDR0Y-2" target="LFpIFKzi9VezRAVTDR0Y-3">
                    <mxGeometry relative="1" as="geometry"/>
                </mxCell>
                <mxCell id="LFpIFKzi9VezRAVTDR0Y-2" value="Git Tag Commit" style="rounded=0;whiteSpace=wrap;html=1;" vertex="1" parent="1">
                    <mxGeometry x="442" y="520" width="120" height="60" as="geometry"/>
                </mxCell>
                <mxCell id="LFpIFKzi9VezRAVTDR0Y-9" value="" style="edgeStyle=none;html=1;" edge="1" parent="1" source="LFpIFKzi9VezRAVTDR0Y-3" target="LFpIFKzi9VezRAVTDR0Y-4">
                    <mxGeometry relative="1" as="geometry"/>
                </mxCell>
                <mxCell id="LFpIFKzi9VezRAVTDR0Y-3" value="Git Actions" style="rounded=0;whiteSpace=wrap;html=1;" vertex="1" parent="1">
                    <mxGeometry x="643" y="520" width="120" height="60" as="geometry"/>
                </mxCell>
                <mxCell id="LFpIFKzi9VezRAVTDR0Y-10" value="" style="edgeStyle=none;html=1;" edge="1" parent="1" source="LFpIFKzi9VezRAVTDR0Y-4" target="LFpIFKzi9VezRAVTDR0Y-5">
                    <mxGeometry relative="1" as="geometry"/>
                </mxCell>
                <mxCell id="LFpIFKzi9VezRAVTDR0Y-4" value="Image Repository" style="rounded=0;whiteSpace=wrap;html=1;" vertex="1" parent="1">
                    <mxGeometry x="835" y="520" width="120" height="60" as="geometry"/>
                </mxCell>
                <mxCell id="LFpIFKzi9VezRAVTDR0Y-11" value="" style="edgeStyle=none;html=1;" edge="1" parent="1" source="LFpIFKzi9VezRAVTDR0Y-5" target="LFpIFKzi9VezRAVTDR0Y-6">
                    <mxGeometry relative="1" as="geometry"/>
                </mxCell>
                <mxCell id="LFpIFKzi9VezRAVTDR0Y-5" value="Argo CD" style="rounded=0;whiteSpace=wrap;html=1;" vertex="1" parent="1">
                    <mxGeometry x="835" y="624" width="120" height="60" as="geometry"/>
                </mxCell>
                <mxCell id="LFpIFKzi9VezRAVTDR0Y-6" value="배포" style="rounded=0;whiteSpace=wrap;html=1;" vertex="1" parent="1">
                    <mxGeometry x="835" y="715" width="120" height="60" as="geometry"/>
                </mxCell>
                <mxCell id="LFpIFKzi9VezRAVTDR0Y-20" value="" style="edgeStyle=none;html=1;" edge="1" parent="1" source="LFpIFKzi9VezRAVTDR0Y-12" target="LFpIFKzi9VezRAVTDR0Y-14">
                    <mxGeometry relative="1" as="geometry"/>
                </mxCell>
                <mxCell id="LFpIFKzi9VezRAVTDR0Y-21" style="edgeStyle=orthogonalEdgeStyle;html=1;exitX=1;exitY=0.5;exitDx=0;exitDy=0;entryX=0;entryY=0.5;entryDx=0;entryDy=0;" edge="1" parent="1" source="LFpIFKzi9VezRAVTDR0Y-12" target="LFpIFKzi9VezRAVTDR0Y-17">
                    <mxGeometry relative="1" as="geometry"/>
                </mxCell>
                <mxCell id="LFpIFKzi9VezRAVTDR0Y-12" value="Dev" style="rounded=0;whiteSpace=wrap;html=1;" vertex="1" parent="1">
                    <mxGeometry x="241" y="98" width="59" height="60" as="geometry"/>
                </mxCell>
                <mxCell id="LFpIFKzi9VezRAVTDR0Y-14" value="dev-cicd Branch" style="rounded=0;whiteSpace=wrap;html=1;" vertex="1" parent="1">
                    <mxGeometry x="407" y="98" width="120" height="60" as="geometry"/>
                </mxCell>
                <mxCell id="LFpIFKzi9VezRAVTDR0Y-15" value="main Branch" style="rounded=0;whiteSpace=wrap;html=1;" vertex="1" parent="1">
                    <mxGeometry x="407" y="284" width="120" height="60" as="geometry"/>
                </mxCell>
                <mxCell id="LFpIFKzi9VezRAVTDR0Y-19" value="" style="edgeStyle=none;html=1;" edge="1" parent="1" source="LFpIFKzi9VezRAVTDR0Y-16" target="LFpIFKzi9VezRAVTDR0Y-15">
                    <mxGeometry relative="1" as="geometry"/>
                </mxCell>
                <mxCell id="LFpIFKzi9VezRAVTDR0Y-22" style="edgeStyle=orthogonalEdgeStyle;html=1;exitX=1;exitY=0.5;exitDx=0;exitDy=0;entryX=0;entryY=0.5;entryDx=0;entryDy=0;" edge="1" parent="1" source="LFpIFKzi9VezRAVTDR0Y-16" target="LFpIFKzi9VezRAVTDR0Y-18">
                    <mxGeometry relative="1" as="geometry"/>
                </mxCell>
                <mxCell id="LFpIFKzi9VezRAVTDR0Y-16" value="Prod" style="rounded=0;whiteSpace=wrap;html=1;" vertex="1" parent="1">
                    <mxGeometry x="241" y="284" width="59" height="60" as="geometry"/>
                </mxCell>
                <mxCell id="LFpIFKzi9VezRAVTDR0Y-17" value="Docker - Hub ImageRepository" style="rounded=0;whiteSpace=wrap;html=1;" vertex="1" parent="1">
                    <mxGeometry x="407" y="169" width="120" height="60" as="geometry"/>
                </mxCell>
                <mxCell id="LFpIFKzi9VezRAVTDR0Y-18" value="AWS - ECR ImageRepository" style="rounded=0;whiteSpace=wrap;html=1;" vertex="1" parent="1">
                    <mxGeometry x="407" y="358" width="120" height="60" as="geometry"/>
                </mxCell>
            </root>
        </mxGraphModel>
    </diagram>
</mxfile>